<svg width="50" height="34" viewBox="0 0 50 34" fill="none" xmlns="http://www.w3.org/2000/svg">
<path d="M1.03378 11.3385V4.44615C0.867229 3.29744 1.23364 1 4.03167 1C5.01034 1 8.87014 1 14.0246 1M1.03378 11.3385V22.1692M1.03378 11.3385H15.5236M49 11.3385C49 7.98376 49 5.32961 49 4.44615C49 2.08308 47.0014 1.1641 46.0021 1C37.6634 1 23.6069 1 14.0246 1M49 11.3385C49 14.613 49 18.555 49 22.1692M49 11.3385H36.5088M1.03378 22.1692V29.0615C1.03378 31.8185 3.03237 32.8359 4.03167 33C12.5624 33 26.9534 33 36.5088 33M1.03378 22.1692H15.5236V11.3385M15.5236 11.3385H21.5194M21.5194 11.3385V6.90769L14.0246 1M21.5194 11.3385H36.5088M49 22.1692C49 24.7563 49 27.1754 49 29.0615C49 30.3744 48.4004 33 46.0021 33C45.1787 33 41.5047 33 36.5088 33M49 22.1692H36.5088M36.5088 33L28.5144 27.5846V22.1692H36.5088M36.5088 22.1692V11.3385" stroke="#E4E4E4" stroke-width="1.5"/>
</svg>
